<svg xmlns="http://www.w3.org/2000/svg" xmlns:xlink="http://www.w3.org/1999/xlink" xmlns:lucid="lucid" width="1560.55" height="369.16"><g transform="translate(-320 -80)" lucid:page-tab-id="0_0"><path d="M660 200c0 22.1-17.9 40-40 40s-40-17.9-40-40 17.9-40 40-40 40 17.9 40 40z" stroke="#60174b" stroke-width="2" fill="#fff"/><use xlink:href="#a" transform="matrix(1,0,0,1,585,165) translate(22.892795138888886 45.45138888888889)"/><path d="M660 320c0 22.1-17.9 40-40 40s-40-17.9-40-40 17.9-40 40-40 40 17.9 40 40z" stroke="#60174b" stroke-width="2" fill="#fff"/><use xlink:href="#b" transform="matrix(1,0,0,1,585,285) translate(21.087239583333332 45.45138888888889)"/><path d="M508 86a6 6 0 0 1 6-6h212a6 6 0 0 1 6 6v24.9a6 6 0 0 1-6 6H514a6 6 0 0 1-6-6z" fill="none"/><use xlink:href="#c" transform="matrix(1,0,0,1,512.9854513888889,85) translate(0 21.58376736111111)"/><use xlink:href="#d" transform="matrix(1,0,0,1,512.9854513888889,85) translate(61.72960069444444 21.58376736111111)"/><use xlink:href="#e" transform="matrix(1,0,0,1,512.9854513888889,85) translate(94.23828125 21.58376736111111)"/><use xlink:href="#f" transform="matrix(1,0,0,1,512.9854513888889,85) translate(183.26822916666666 21.58376736111111)"/><path d="M320 386a6 6 0 0 1 6-6h214a6 6 0 0 1 6 6v57.16a6 6 0 0 1-6 6H326a6 6 0 0 1-6-6z" fill="none"/><use xlink:href="#g" transform="matrix(1,0,0,1,325,385) translate(1.798828125 21.95095486111111)"/><use xlink:href="#d" transform="matrix(1,0,0,1,325,385) translate(93.8127170138889 21.95095486111111)"/><use xlink:href="#h" transform="matrix(1,0,0,1,325,385) translate(126.32139756944446 21.95095486111111)"/><use xlink:href="#i" transform="matrix(1,0,0,1,325,385) translate(39.72200520833333 54.21657986111111)"/><use xlink:href="#j" transform="matrix(1,0,0,1,325,385) translate(141.72938368055554 54.21657986111111)"/><use xlink:href="#k" transform="matrix(1,0,0,1,325,385) translate(162.07443576388889 54.21657986111111)"/><path d="M340 246a6 6 0 0 1 6-6h168a6 6 0 0 1 6 6v37.16a6 6 0 0 1-6 6H346a6 6 0 0 1-6-6z" fill="none"/><use xlink:href="#l" transform="matrix(1,0,0,1,345,245) translate(0 28.08376736111111)"/><use xlink:href="#m" transform="matrix(1,0,0,1,345,245) translate(36.01 28.08376736111111)"/><use xlink:href="#n" transform="matrix(1,0,0,1,345,245) translate(72.01 28.08376736111111)"/><use xlink:href="#o" transform="matrix(1,0,0,1,345,245) translate(108.01 28.08376736111111)"/><use xlink:href="#p" transform="matrix(1,0,0,1,345,245) translate(144.01 28.08376736111111)"/><path d="M340 171.42a6 6 0 0 1 6-6h168a6 6 0 0 1 6 6v57.16a6 6 0 0 1-6 6H346a6 6 0 0 1-6-6z" fill="none"/><use xlink:href="#q" transform="matrix(1,0,0,1,345,170.41817708333338) translate(0 38.083767361111114)"/><use xlink:href="#r" transform="matrix(1,0,0,1,345,170.41817708333338) translate(36.01 38.083767361111114)"/><use xlink:href="#s" transform="matrix(1,0,0,1,345,170.41817708333338) translate(72.01 38.083767361111114)"/><use xlink:href="#t" transform="matrix(1,0,0,1,345,170.41817708333338) translate(108.01 38.083767361111114)"/><use xlink:href="#u" transform="matrix(1,0,0,1,345,170.41817708333338) translate(144.01 38.083767361111114)"/><path d="M340 291.42a6 6 0 0 1 6-6h174a6 6 0 0 1 6 6v57.16a6 6 0 0 1-6 6H346a6 6 0 0 1-6-6z" fill="none"/><use xlink:href="#v" transform="matrix(1,0,0,1,345,290.4181770833333) translate(0 38.083767361111114)"/><use xlink:href="#w" transform="matrix(1,0,0,1,345,290.4181770833333) translate(36.01 38.083767361111114)"/><use xlink:href="#x" transform="matrix(1,0,0,1,345,290.4181770833333) translate(72.01 38.083767361111114)"/><use xlink:href="#y" transform="matrix(1,0,0,1,345,290.4181770833333) translate(108.01 38.083767361111114)"/><use xlink:href="#z" transform="matrix(1,0,0,1,345,290.4181770833333) translate(144.01 38.083767361111114)"/><path d="M520.5 200h42.1" stroke="#3a414a" fill="none"/><path d="M520.5 200.47h-.5v-.94h.5z" stroke="#3a414a" stroke-width=".05" fill="#3a414a"/><path d="M577.38 200l-14.27 4.63v-9.26z" stroke="#3a414a" fill="#3a414a"/><path d="M526.5 320h36.1" stroke="#3a414a" fill="none"/><path d="M526.5 320.48h-.5v-.96h.5z" stroke="#3a414a" stroke-width=".05" fill="#3a414a"/><path d="M577.38 320l-14.27 4.63v-9.26z" stroke="#3a414a" fill="#3a414a"/><path d="M336.18 360a6 6 0 0 1-6-6v-28a6 6 0 0 1 6-6h35.65a6 6 0 0 1 6 6v28a6 6 0 0 1-6 6z" fill="none"/><use xlink:href="#A" transform="matrix(6.123233995736766e-17,-1,1,6.123233995736766e-17,335.18120659722223,355.00000000000006) translate(9.826171875 30.317274305555557)"/><path d="M377.25 360a6 6 0 0 1-6-6v-28a6 6 0 0 1 6-6h35.66a6 6 0 0 1 6 6v28a6 6 0 0 1-6 6z" fill="none"/><use xlink:href="#A" transform="matrix(6.123233995736766e-17,-1,1,6.123233995736766e-17,376.2535807291668,355.00000000000006) translate(9.826171875 30.317274305555557)"/><path d="M412.17 360a6 6 0 0 1-6-6v-28a6 6 0 0 1 6-6h35.66a6 6 0 0 1 6 6v28a6 6 0 0 1-6 6z" fill="none"/><use xlink:href="#A" transform="matrix(6.123233995736766e-17,-1,1,6.123233995736766e-17,411.1733854166667,355.00000000000006) translate(9.826171875 30.317274305555557)"/><path d="M446 360a6 6 0 0 1-6-6v-28a6 6 0 0 1 6-6h35.65a6 6 0 0 1 6 6v28a6 6 0 0 1-6 6z" fill="none"/><use xlink:href="#A" transform="matrix(6.123233995736766e-17,-1,1,6.123233995736766e-17,445.0000000000001,355) translate(9.826171875 30.317274305555557)"/><path d="M484.34 360a6 6 0 0 1-6-6v-28a6 6 0 0 1 6-6H520a6 6 0 0 1 6 6v28a6 6 0 0 1-6 6z" fill="none"/><use xlink:href="#A" transform="matrix(6.123233995736766e-17,-1,1,6.123233995736766e-17,483.3389496527779,354.99999999999994) translate(9.826171875 30.317274305555557)"/><path d="M371.83 165.42a6 6 0 0 1 6 6v28a6 6 0 0 1-6 6h-35.65a6 6 0 0 1-6-6v-28a6 6 0 0 1 6-6z" fill="none"/><use xlink:href="#A" transform="matrix(6.123233995736766e-17,1,-1,6.123233995736766e-17,372.8344357638891,170.41817708333338) translate(9.826171875 30.317274305555557)"/><path d="M412.9 165.42a6 6 0 0 1 6 6v28a6 6 0 0 1-6 6h-35.65a6 6 0 0 1-6-6v-28a6 6 0 0 1 6-6z" fill="none"/><use xlink:href="#A" transform="matrix(6.123233995736766e-17,1,-1,6.123233995736766e-17,413.90680989583365,170.41817708333338) translate(9.826171875 30.317274305555557)"/><path d="M447.83 165.42a6 6 0 0 1 6 6v28a6 6 0 0 1-6 6h-35.66a6 6 0 0 1-6-6v-28a6 6 0 0 1 6-6z" fill="none"/><use xlink:href="#A" transform="matrix(6.123233995736766e-17,1,-1,6.123233995736766e-17,448.82661458333354,170.41817708333338) translate(9.826171875 30.317274305555557)"/><path d="M481.65 165.42a6 6 0 0 1 6 6v28a6 6 0 0 1-6 6H446a6 6 0 0 1-6-6v-28a6 6 0 0 1 6-6z" fill="none"/><use xlink:href="#A" transform="matrix(6.123233995736766e-17,1,-1,6.123233995736766e-17,482.6532291666669,170.41817708333338) translate(9.826171875 30.317274305555557)"/><path d="M520 165.42a6 6 0 0 1 6 6v28a6 6 0 0 1-6 6h-35.66a6 6 0 0 1-6-6v-28a6 6 0 0 1 6-6z" fill="none"/><use xlink:href="#A" transform="matrix(6.123233995736766e-17,1,-1,6.123233995736766e-17,520.9921788194447,170.41817708333338) translate(9.826171875 30.317274305555557)"/><path d="M720 146a6 6 0 0 1 6-6h148a6 6 0 0 1 6 6v228a6 6 0 0 1-6 6H726a6 6 0 0 1-6-6z" stroke="#6c165e" stroke-width="2" fill="#fff"/><use xlink:href="#B" transform="matrix(1,0,0,1,732,152) translate(14.202256944444443 89.02777777777777)"/><use xlink:href="#C" transform="matrix(1,0,0,1,732,152) translate(67.00173611111111 89.02777777777777)"/><use xlink:href="#D" transform="matrix(1,0,0,1,732,152) translate(33.71180555555555 116.98784722222223)"/><use xlink:href="#E" transform="matrix(1,0,0,1,732,152) translate(20.443576388888886 142.80034722222223)"/><path d="M661.5 200.02l1.2.05 1.58.2 1.5.32 1.5.43 1.44.57 1.46.73 1.5.9 1.57 1.13 1.67 1.44 1.84 1.86 2.1 2.53 2.6 3.7 3.8 6.58 13.3 25.63 2.58 3.7 2.1 2.54 1.2 1.2" stroke="#3a414a" stroke-linejoin="round" fill="none"/><path d="M661.53 199.55l-.04.95-.53-.03.03-.46-.02-.48z" stroke="#3a414a" stroke-width=".05" fill="#3a414a"/><path d="M717.52 259.34l-14.92-1.54 3.76-8.47z" stroke="#3a414a" fill="#3a414a"/><path d="M661.5 319.98l1.2-.05 1.58-.2 1.5-.32 1.5-.43 1.44-.58 1.46-.73 1.5-.9 1.57-1.13 1.67-1.44 1.84-1.86 2.1-2.53 2.6-3.7 3.8-6.58 13.3-25.63 2.58-3.7 2.1-2.54 1.2-1.2" stroke="#3a414a" stroke-linejoin="round" fill="none"/><path d="M661.53 320.45l-.56.03.03-.47-.02-.48.5-.02z" stroke="#3a414a" stroke-width=".05" fill="#3a414a"/><path d="M717.52 260.66l-11.16 10-3.76-8.46z" stroke="#3a414a" fill="#3a414a"/><path d="M881.5 340.22H894a6 6 0 0 1 6 6V404a6 6 0 0 1-6 6h-88a6 6 0 0 1-6-6v-6.62" stroke="#3a414a" fill="none"/><path d="M881.5 340.7h-.5v-.95h.5z" stroke="#3a414a" stroke-width=".05" fill="#3a414a"/><path d="M800 382.62l4.63 14.26h-9.26z" stroke="#3a414a" fill="#3a414a"/><path d="M920 178.7a6 6 0 0 1 6-6h148a6 6 0 0 1 6 6v162.6a6 6 0 0 1-6 6H926a6 6 0 0 1-6-6z" stroke="#6c165e" stroke-width="2" fill="#fff"/><use xlink:href="#F" transform="matrix(1,0,0,1,932,184.70908854166663) translate(10.936197916666671 59.27777777777778)"/><use xlink:href="#G" transform="matrix(1,0,0,1,932,184.70908854166663) translate(78.85069444444444 59.27777777777778)"/><use xlink:href="#D" transform="matrix(1,0,0,1,932,184.70908854166663) translate(33.71180555555555 87.23784722222223)"/><use xlink:href="#E" transform="matrix(1,0,0,1,932,184.70908854166663) translate(20.443576388888886 113.05034722222223)"/><path d="M1081.5 318.36h12.5a6 6 0 0 1 6 6V375a6 6 0 0 1-6 6h-88a6 6 0 0 1-6-6v-10.32" stroke="#3a414a" fill="none"/><path d="M1081.5 318.83h-.5v-.95h.5z" stroke="#3a414a" stroke-width=".05" fill="#3a414a"/><path d="M1000 349.9l4.63 14.28h-9.26z" stroke="#3a414a" fill="#3a414a"/><path d="M881.5 260h21.12" stroke="#3a414a" fill="none"/><path d="M881.5 260.48h-.5v-.96h.5z" stroke="#3a414a" stroke-width=".05" fill="#3a414a"/><path d="M917.38 260l-14.26 4.63v-9.26z" stroke="#3a414a" fill="#3a414a"/><path d="M1120 206a6 6 0 0 1 6-6h148a6 6 0 0 1 6 6v108a6 6 0 0 1-6 6h-148a6 6 0 0 1-6-6z" stroke="#6c165e" stroke-width="2" fill="#fff"/><use xlink:href="#B" transform="matrix(1,0,0,1,1132,211.99999999999994) translate(19.052517361111114 30.52777777777778)"/><use xlink:href="#H" transform="matrix(1,0,0,1,1132,211.99999999999994) translate(71.85199652777777 30.52777777777778)"/><use xlink:href="#I" transform="matrix(1,0,0,1,1132,211.99999999999994) translate(21.576388888888886 58.48784722222222)"/><use xlink:href="#J" transform="matrix(1,0,0,1,1132,211.99999999999994) translate(50.63020833333333 58.48784722222222)"/><use xlink:href="#E" transform="matrix(1,0,0,1,1132,211.99999999999994) translate(20.443576388888886 84.30034722222223)"/><path d="M1281.5 300.1h12.5a6 6 0 0 1 6 6v36.2a6 6 0 0 1-6 6h-88a6 6 0 0 1-6-6v-4.92" stroke="#3a414a" fill="none"/><path d="M1281.5 300.6h-.5v-.96h.5z" stroke="#3a414a" stroke-width=".05" fill="#3a414a"/><path d="M1200 322.62l4.63 14.26h-9.27z" stroke="#3a414a" fill="#3a414a"/><path d="M1081.5 260h21.12" stroke="#3a414a" fill="none"/><path d="M1081.5 260.48h-.5v-.96h.5z" stroke="#3a414a" stroke-width=".05" fill="#3a414a"/><path d="M1117.38 260l-14.27 4.63.02-9.26z" stroke="#3a414a" fill="#3a414a"/><path d="M1320 178.7a6 6 0 0 1 6-6h148a6 6 0 0 1 6 6v162.6a6 6 0 0 1-6 6h-148a6 6 0 0 1-6-6z" stroke="#6c165e" stroke-width="2" fill="#fff"/><g><use xlink:href="#c" transform="matrix(1,0,0,1,1332,184.70908854166663) translate(3.921223958333343 68.71527777777777)"/><use xlink:href="#K" transform="matrix(1,0,0,1,1332,184.70908854166663) translate(65.65082465277779 68.71527777777777)"/><use xlink:href="#L" transform="matrix(1,0,0,1,1332,184.70908854166663) translate(44.89344618055556 100.98090277777777)"/></g><path d="M1520 206a6 6 0 0 1 6-6h148a6 6 0 0 1 6 6v108a6 6 0 0 1-6 6h-148a6 6 0 0 1-6-6z" stroke="#6c165e" stroke-width="2" fill="#fff"/><g><use xlink:href="#c" transform="matrix(1,0,0,1,1532,211.99999999999983) translate(3.921223958333343 39.52777777777778)"/><use xlink:href="#K" transform="matrix(1,0,0,1,1532,211.99999999999983) translate(65.65082465277779 39.52777777777778)"/><use xlink:href="#M" transform="matrix(1,0,0,1,1532,211.99999999999983) translate(45.45225694444444 71.79340277777777)"/></g><path d="M1481.5 260h21.12" stroke="#3a414a" fill="none"/><path d="M1481.5 260.48h-.5v-.96h.5z" stroke="#3a414a" stroke-width=".05" fill="#3a414a"/><path d="M1517.38 260l-14.27 4.63.02-9.26z" stroke="#3a414a" fill="#3a414a"/><path d="M1281.5 260h21.12" stroke="#3a414a" fill="none"/><path d="M1281.5 260.48h-.5v-.96h.5z" stroke="#3a414a" stroke-width=".05" fill="#3a414a"/><path d="M1317.38 260l-14.27 4.63.02-9.26z" stroke="#3a414a" fill="#3a414a"/><path d="M1820.27 260c0 22.1-17.9 40-40 40s-40-17.9-40-40 17.9-40 40-40 40 17.9 40 40z" stroke="#60174b" stroke-width="2" fill="#fff"/><g><use xlink:href="#N" transform="matrix(1,0,0,1,1745.2740972222223,224.9999999999999) translate(26.25759548611111 45.45138888888889)"/></g><path d="M1681.5 260h41.39" stroke="#3a414a" fill="none"/><path d="M1681.5 260.48h-.5v-.96h.5z" stroke="#3a414a" stroke-width=".05" fill="#3a414a"/><path d="M1737.65 260l-14.26 4.63v-9.26z" stroke="#3a414a" fill="#3a414a"/><path d="M1680 146a6 6 0 0 1 6-6h188.55a6 6 0 0 1 6 6v24.9a6 6 0 0 1-6 6H1686a6 6 0 0 1-6-6z" fill="none"/><g><use xlink:href="#c" transform="matrix(1,0,0,1,1685,145) translate(0 21.58376736111111)"/><use xlink:href="#d" transform="matrix(1,0,0,1,1685,145) translate(61.72960069444444 21.58376736111111)"/><use xlink:href="#O" transform="matrix(1,0,0,1,1685,145) translate(94.23828125 21.58376736111111)"/><use xlink:href="#P" transform="matrix(1,0,0,1,1685,145) translate(163.80208333333331 21.58376736111111)"/></g><path d="M1728.14 306a6 6 0 0 1 6-6h98.52a6 6 0 0 1 6 6v24.9a6 6 0 0 1-6 6h-98.52a6 6 0 0 1-6-6z" fill="none"/><g><use xlink:href="#Q" transform="matrix(1,0,0,1,1733.1391059027778,304.99999999999983) translate(0 21.58376736111111)"/><use xlink:href="#R" transform="matrix(1,0,0,1,1733.1391059027778,304.99999999999983) translate(6.25 21.58376736111111)"/></g><defs><path d="M65 0l393-574-370-544h210c88 136 192 297 267 435 67-142 176-302 264-435h206L661-564 1053 0H844c-94-144-206-310-287-458C484-308 366-142 273 0H65" id="S"/><path d="M653-1490V0H466v-1314h-10L96-1047v-204l324-239h233" id="T"/><g id="a"><use transform="matrix(0.015190972222222224,0,0,0.015190972222222224,0,0)" xlink:href="#S"/><use transform="matrix(0.008680555555555556,0,0,0.008680555555555556,16.983506944444446,0)" xlink:href="#T"/></g><path d="M154 0v-137l495-537c165-179 249-281 249-418 0-156-121-253-280-253-170 0-278 110-278 278H158c0-264 200-443 465-443 266 0 455 183 455 416 0 161-73 288-336 568L416-179v12h687V0H154" id="U"/><g id="b"><use transform="matrix(0.015190972222222224,0,0,0.015190972222222224,0,0)" xlink:href="#S"/><use transform="matrix(0.008680555555555556,0,0,0.008680555555555556,16.983506944444446,0)" xlink:href="#U"/></g><path fill="#6c165e" d="M786 20C389 20 94-260 94-744c0-487 299-766 692-766 339 0 597 194 641 529h-309c-28-162-156-258-326-258-233 0-388 179-388 495 0 323 157 493 387 493 170 0 298-97 328-259h309c-34 277-266 530-642 530" id="V"/><path fill="#6c165e" d="M440 22C227 22 68-92 68-313c0-250 202-322 422-343 195-21 271-24 271-105 0-95-63-149-175-149-116 0-187 57-211 129l-275-46c57-194 237-305 487-305 240 0 474 108 474 379V0H777v-155h-10C713-51 605 22 440 22zm85-211c140 0 238-93 238-211v-121c-37 26-156 42-222 51-111 16-185 59-185 149 0 87 70 132 169 132" id="W"/><path fill="#6c165e" d="M128 418v-1536h295v188h14c41-89 129-202 319-202 248 0 453 193 453 575 0 372-197 576-455 576-183 0-275-108-317-198h-9v597H128zm534-640c156 0 240-139 240-336 0-196-83-334-240-334-154 0-241 131-241 334 0 202 88 336 241 336" id="X"/><g id="c"><use transform="matrix(0.010850694444444444,0,0,0.010850694444444444,0,0)" xlink:href="#V"/><use transform="matrix(0.010850694444444444,0,0,0.010850694444444444,16.438802083333332,0)" xlink:href="#W"/><use transform="matrix(0.010850694444444444,0,0,0.010850694444444444,29.340277777777775,0)" xlink:href="#X"/><use transform="matrix(0.010850694444444444,0,0,0.010850694444444444,43.56553819444444,0)" xlink:href="#W"/></g><path fill="#6c165e" d="M537 19C279 19 81-185 81-557c0-382 206-575 454-575 190 0 278 113 318 202h10v-560h300V0H868v-179h-15C812-89 719 19 537 19zm92-241c153 0 240-134 240-336 0-203-86-334-240-334-158 0-240 138-240 334 0 197 84 336 240 336" id="Y"/><path fill="#6c165e" d="M633 22C291 22 81-200 81-553c0-345 210-579 537-579 292 0 525 185 525 567v84H378c7 183 109 277 260 277 105 0 184-46 216-132l272 51C1071-99 893 22 633 22zM380-669h474c-15-146-94-237-233-237-143 0-229 99-241 237" id="Z"/><g id="d"><use transform="matrix(0.010850694444444444,0,0,0.010850694444444444,0,0)" xlink:href="#Y"/><use transform="matrix(0.010850694444444444,0,0,0.010850694444444444,14.008246527777777,0)" xlink:href="#Z"/></g><path fill="#6c165e" d="M428-647V0H128v-1118h283l4 231c63-156 176-245 348-245 232 0 384 159 384 421V0H847v-659c0-139-76-222-202-222-128 0-217 86-217 234" id="aa"/><path fill="#6c165e" d="M683-1118v229H474v562c0 71 29 104 102 104 23 0 73-7 95-13l43 225C647 9 580 16 520 16 296 16 174-96 174-301v-588H20v-229h154v-266h300v266h209" id="ab"/><path fill="#6c165e" d="M128 0v-1118h290v195h12c54-169 184-238 367-200v268c-27-8-86-15-130-15-138 0-239 95-239 234V0H128" id="ac"/><g id="e"><use transform="matrix(0.010850694444444444,0,0,0.010850694444444444,0,0)" xlink:href="#Z"/><use transform="matrix(0.010850694444444444,0,0,0.010850694444444444,13.237847222222221,0)" xlink:href="#aa"/><use transform="matrix(0.010850694444444444,0,0,0.010850694444444444,27.07248263888889,0)" xlink:href="#ab"/><use transform="matrix(0.010850694444444444,0,0,0.010850694444444444,35.21050347222222,0)" xlink:href="#ac"/><use transform="matrix(0.010850694444444444,0,0,0.010850694444444444,43.95616319444444,0)" xlink:href="#W"/><use transform="matrix(0.010850694444444444,0,0,0.010850694444444444,56.857638888888886,0)" xlink:href="#Y"/><use transform="matrix(0.010850694444444444,0,0,0.010850694444444444,70.86588541666666,0)" xlink:href="#W"/></g><path fill="#6c165e" d="M169-607c0-330 107-732 258-974h279c-145 311-231 674-231 974 0 262 67 512 231 886H427C258-1 169-307 169-607" id="ad"/><path fill="#6c165e" d="M124 0v-220l528-495c135-132 210-216 210-336 0-133-98-215-231-215-139 0-229 88-229 233H110c0-290 214-477 523-477 315 0 525 182 525 440 0 167-80 305-385 586L548-262v11h630V0H124" id="ae"/><path fill="#6c165e" d="M67 279c166-379 230-627 230-886 0-300-86-663-230-974h278c151 241 258 644 258 974 0 302-90 608-258 886H67" id="af"/><g id="f"><use transform="matrix(0.010850694444444444,0,0,0.010850694444444444,0,0)" xlink:href="#ad"/><use transform="matrix(0.010850694444444444,0,0,0.010850694444444444,8.37673611111111,0)" xlink:href="#ae"/><use transform="matrix(0.010850694444444444,0,0,0.010850694444444444,22.374131944444443,0)" xlink:href="#af"/></g><path fill="#6c165e" d="M75-1237v-253h1217v253H837V0H531v-1237H75" id="ag"/><path fill="#6c165e" d="M128 0v-1118h278l12 217c60-163 185-234 319-234 143 0 236 81 288 251 63-172 205-251 359-251 205 0 357 138 357 381V0h-301v-697c0-126-76-187-177-187-114 0-184 79-184 196V0H789v-705c0-109-72-179-174-179-106 0-187 74-187 208V0H128" id="ah"/><path fill="#6c165e" d="M428-647V0H128v-1118h283l4 231c63-156 176-245 348-245 232 0 384 159 384 421V0H847v-659c0-139-76-222-202-222-128 0-217 86-217 234zm349-635c-128 0-194-103-258-103-41 0-62 39-65 97H289c4-169 85-265 209-265 128 0 188 103 256 103 46 0 64-33 68-97h163c-4 169-89 265-208 265" id="ai"/><path fill="#6c165e" d="M628 22C291 22 81-210 81-554c0-346 210-578 547-578 336 0 547 232 547 578 0 344-211 576-547 576zm0-236c160 0 242-146 242-341 0-197-82-341-242-341S387-753 387-555c0 195 81 341 241 341" id="aj"/><g id="g"><use transform="matrix(0.010850694444444444,0,0,0.010850694444444444,0,0)" xlink:href="#ag"/><use transform="matrix(0.010850694444444444,0,0,0.010850694444444444,13.20529513888889,0)" xlink:href="#W"/><use transform="matrix(0.010850694444444444,0,0,0.010850694444444444,26.106770833333336,0)" xlink:href="#ah"/><use transform="matrix(0.010850694444444444,0,0,0.010850694444444444,46.38671875,0)" xlink:href="#W"/><use transform="matrix(0.010850694444444444,0,0,0.010850694444444444,59.28819444444444,0)" xlink:href="#ai"/><use transform="matrix(0.010850694444444444,0,0,0.010850694444444444,73.12282986111111,0)" xlink:href="#aj"/></g><path fill="#6c165e" d="M443 0L31-1118h319c90 293 199 572 268 885 66-313 175-593 264-885h315L784 0H443" id="ak"/><g id="h"><use transform="matrix(0.010850694444444444,0,0,0.010850694444444444,0,0)" xlink:href="#ak"/><use transform="matrix(0.010850694444444444,0,0,0.010850694444444444,12.923177083333332,0)" xlink:href="#Z"/><use transform="matrix(0.010850694444444444,0,0,0.010850694444444444,26.161024305555554,0)" xlink:href="#aa"/><use transform="matrix(0.010850694444444444,0,0,0.010850694444444444,39.99565972222222,0)" xlink:href="#ab"/><use transform="matrix(0.010850694444444444,0,0,0.010850694444444444,48.2421875,0)" xlink:href="#W"/><use transform="matrix(0.010850694444444444,0,0,0.010850694444444444,61.14366319444444,0)" xlink:href="#aa"/><use transform="matrix(0.010850694444444444,0,0,0.010850694444444444,74.97829861111111,0)" xlink:href="#W"/></g><path fill="#6c165e" d="M428-1490V0H128v-1490h300" id="al"/><g id="i"><use transform="matrix(0.010850694444444444,0,0,0.010850694444444444,0,0)" xlink:href="#ab"/><use transform="matrix(0.010850694444444444,0,0,0.010850694444444444,7.921006944444444,0)" xlink:href="#Z"/><use transform="matrix(0.010850694444444444,0,0,0.010850694444444444,21.158854166666664,0)" xlink:href="#ah"/><use transform="matrix(0.010850694444444444,0,0,0.010850694444444444,41.43880208333333,0)" xlink:href="#X"/><use transform="matrix(0.010850694444444444,0,0,0.010850694444444444,55.44704861111111,0)" xlink:href="#aj"/><use transform="matrix(0.010850694444444444,0,0,0.010850694444444444,69.07552083333333,0)" xlink:href="#ac"/><use transform="matrix(0.010850694444444444,0,0,0.010850694444444444,77.82118055555556,0)" xlink:href="#W"/><use transform="matrix(0.010850694444444444,0,0,0.010850694444444444,90.72265625,0)" xlink:href="#al"/></g><path fill="#6c165e" d="M197-230v-252h997v252H197zm0-479v-251h997v251H197" id="am"/><use transform="matrix(0.010850694444444444,0,0,0.010850694444444444,0,0)" xlink:href="#am" id="j"/><path fill="#6c165e" d="M664 20c-306 0-529-183-535-438h297c6 117 110 196 238 196 149 0 255-108 255-266 0-159-108-270-261-270-89 0-178 39-224 98l-274-48 72-782h901v252H485l-39 377h8c53-72 165-124 294-124 269 0 467 204 467 490 0 300-224 515-551 515" id="an"/><use transform="matrix(0.010850694444444444,0,0,0.010850694444444444,0,0)" xlink:href="#an" id="k"/><path fill="#6c165e" d="M598-1118v154H368v674c0 100 37 144 132 144 23 0 62-6 92-12L629-6c-37 13-88 20-134 20-193 0-307-107-307-290v-688H20v-154h168v-266h180v266h230" id="ao"/><path fill="#6c165e" d="M653-1490V0H466v-1314h-10L96-1047v-204l324-239h233" id="ap"/><g id="l"><use transform="matrix(0.010850694444444444,0,0,0.010850694444444444,0,0)" xlink:href="#ao"/><use transform="matrix(0.006510416666666667,0,0,0.006510416666666667,7.269965277777777,0)" xlink:href="#ap"/></g><path fill="#6c165e" d="M154 0v-137l495-537c165-179 249-281 249-418 0-156-121-253-280-253-170 0-278 110-278 278H158c0-264 200-443 465-443 266 0 455 183 455 416 0 161-73 288-336 568L416-179v12h687V0H154" id="aq"/><g id="m"><use transform="matrix(0.010850694444444444,0,0,0.010850694444444444,0,0)" xlink:href="#ao"/><use transform="matrix(0.006510416666666667,0,0,0.006510416666666667,7.269965277777777,0)" xlink:href="#aq"/></g><path fill="#6c165e" d="M635 20c-292 0-500-160-510-396h192c11 142 145 229 315 229 187 0 323-105 323-260 0-161-125-274-346-274H488v-165h121c174 0 294-100 294-254 0-148-104-245-266-245-152 0-291 85-297 230H157c8-234 222-395 484-395 278 0 448 188 448 400 0 168-95 291-247 336v12c190 31 301 169 301 357 0 244-216 425-508 425" id="ar"/><g id="n"><use transform="matrix(0.010850694444444444,0,0,0.010850694444444444,0,0)" xlink:href="#ao"/><use transform="matrix(0.006510416666666667,0,0,0.006510416666666667,7.269965277777777,0)" xlink:href="#ar"/></g><path fill="#6c165e" d="M120-303v-155l652-1032h231v1020h202v167h-202V0H821v-303H120zm702-167v-782h-12L323-482v12h499" id="as"/><g id="o"><use transform="matrix(0.010850694444444444,0,0,0.010850694444444444,0,0)" xlink:href="#ao"/><use transform="matrix(0.006510416666666667,0,0,0.006510416666666667,7.269965277777777,0)" xlink:href="#as"/></g><path fill="#6c165e" d="M626 20c-262 0-458-168-468-396h184c12 133 134 229 284 229 180 0 311-137 311-326 0-192-136-335-323-335-92 0-196 33-255 78l-178-22 88-738h784v167H429l-51 435h8c61-51 160-87 263-87 273 0 474 211 474 499 0 286-210 496-497 496" id="at"/><g id="p"><use transform="matrix(0.010850694444444444,0,0,0.010850694444444444,0,0)" xlink:href="#ao"/><use transform="matrix(0.006510416666666667,0,0,0.006510416666666667,7.269965277777777,0)" xlink:href="#at"/></g><g id="q"><use transform="matrix(0.010850694444444444,0,0,0.010850694444444444,0,0)" xlink:href="#S"/><use transform="matrix(0.006510416666666667,0,0,0.006510416666666667,12.13107638888889,0)" xlink:href="#T"/><use transform="matrix(0.006510416666666667,0,0,0.006510416666666667,17.55425347222222,0)" xlink:href="#T"/></g><g id="r"><use transform="matrix(0.010850694444444444,0,0,0.010850694444444444,0,0)" xlink:href="#S"/><use transform="matrix(0.006510416666666667,0,0,0.006510416666666667,12.13107638888889,0)" xlink:href="#T"/><use transform="matrix(0.006510416666666667,0,0,0.006510416666666667,17.55425347222222,0)" xlink:href="#U"/></g><path d="M635 20c-292 0-500-160-510-396h192c11 142 145 229 315 229 187 0 323-105 323-260 0-161-125-274-346-274H488v-165h121c174 0 294-100 294-254 0-148-104-245-266-245-152 0-291 85-297 230H157c8-234 222-395 484-395 278 0 448 188 448 400 0 168-95 291-247 336v12c190 31 301 169 301 357 0 244-216 425-508 425" id="au"/><g id="s"><use transform="matrix(0.010850694444444444,0,0,0.010850694444444444,0,0)" xlink:href="#S"/><use transform="matrix(0.006510416666666667,0,0,0.006510416666666667,12.13107638888889,0)" xlink:href="#T"/><use transform="matrix(0.006510416666666667,0,0,0.006510416666666667,17.55425347222222,0)" xlink:href="#au"/></g><path d="M120-303v-155l652-1032h231v1020h202v167h-202V0H821v-303H120zm702-167v-782h-12L323-482v12h499" id="av"/><g id="t"><use transform="matrix(0.010850694444444444,0,0,0.010850694444444444,0,0)" xlink:href="#S"/><use transform="matrix(0.006510416666666667,0,0,0.006510416666666667,12.13107638888889,0)" xlink:href="#T"/><use transform="matrix(0.006510416666666667,0,0,0.006510416666666667,17.55425347222222,0)" xlink:href="#av"/></g><path d="M626 20c-262 0-458-168-468-396h184c12 133 134 229 284 229 180 0 311-137 311-326 0-192-136-335-323-335-92 0-196 33-255 78l-178-22 88-738h784v167H429l-51 435h8c61-51 160-87 263-87 273 0 474 211 474 499 0 286-210 496-497 496" id="aw"/><g id="u"><use transform="matrix(0.010850694444444444,0,0,0.010850694444444444,0,0)" xlink:href="#S"/><use transform="matrix(0.006510416666666667,0,0,0.006510416666666667,12.13107638888889,0)" xlink:href="#T"/><use transform="matrix(0.006510416666666667,0,0,0.006510416666666667,17.55425347222222,0)" xlink:href="#aw"/></g><g id="v"><use transform="matrix(0.010850694444444444,0,0,0.010850694444444444,0,0)" xlink:href="#S"/><use transform="matrix(0.006510416666666667,0,0,0.006510416666666667,12.13107638888889,0)" xlink:href="#U"/><use transform="matrix(0.006510416666666667,0,0,0.006510416666666667,20.262586805555557,0)" xlink:href="#T"/></g><g id="w"><use transform="matrix(0.010850694444444444,0,0,0.010850694444444444,0,0)" xlink:href="#S"/><use transform="matrix(0.006510416666666667,0,0,0.006510416666666667,12.13107638888889,0)" xlink:href="#U"/><use transform="matrix(0.006510416666666667,0,0,0.006510416666666667,20.262586805555557,0)" xlink:href="#U"/></g><g id="x"><use transform="matrix(0.010850694444444444,0,0,0.010850694444444444,0,0)" xlink:href="#S"/><use transform="matrix(0.006510416666666667,0,0,0.006510416666666667,12.13107638888889,0)" xlink:href="#U"/><use transform="matrix(0.006510416666666667,0,0,0.006510416666666667,20.262586805555557,0)" xlink:href="#au"/></g><g id="y"><use transform="matrix(0.010850694444444444,0,0,0.010850694444444444,0,0)" xlink:href="#S"/><use transform="matrix(0.006510416666666667,0,0,0.006510416666666667,12.13107638888889,0)" xlink:href="#U"/><use transform="matrix(0.006510416666666667,0,0,0.006510416666666667,20.05425347222222,0)" xlink:href="#av"/></g><g id="z"><use transform="matrix(0.010850694444444444,0,0,0.010850694444444444,0,0)" xlink:href="#S"/><use transform="matrix(0.006510416666666667,0,0,0.006510416666666667,12.13107638888889,0)" xlink:href="#U"/><use transform="matrix(0.006510416666666667,0,0,0.006510416666666667,20.262586805555557,0)" xlink:href="#aw"/></g><path fill="#6c165e" d="M226 279v-1860h398v153H398V126h226v153H226" id="ax"/><use transform="matrix(0.015190972222222224,0,0,0.015190972222222224,0,0)" xlink:href="#ax" id="A"/><path fill="#6c165e" d="M795 20C377 20 94-272 94-743c0-483 302-767 694-767 335 0 593 206 635 500h-310c-42-142-154-229-320-229-230 0-389 177-389 493s154 495 393 495c212 0 340-120 345-311H818v-232h620v186c0 391-269 628-643 628" id="ay"/><path fill="#6c165e" d="M135 0v-1490h581c339 0 533 192 533 485 0 204-94 351-264 424L1302 0H964L680-532H440V0H135zm305-779h220c186 0 274-77 274-226 0-150-88-233-275-233H440v459" id="az"/><path fill="#6c165e" d="M750 21c-371 0-615-218-615-544v-967h305v942c0 174 123 299 310 299s309-125 309-299v-942h306v967c0 326-247 544-615 544" id="aA"/><g id="B"><use transform="matrix(0.010850694444444444,0,0,0.010850694444444444,0,0)" xlink:href="#ay"/><use transform="matrix(0.010850694444444444,0,0,0.010850694444444444,16.67751736111111,0)" xlink:href="#az"/><use transform="matrix(0.010850694444444444,0,0,0.010850694444444444,31.27170138888889,0)" xlink:href="#aA"/></g><path fill="#6c165e" d="M749-1490V0H444v-1221h-10L93-980v-279l329-231h327" id="aB"/><path fill="#6c165e" d="M666 20C332 20 94-158 94-400c0-186 139-340 321-370v-9c-159-33-267-168-267-331 0-230 219-400 518-400 298 0 519 171 519 400 0 163-111 298-266 331v9c177 30 321 184 321 370 0 242-241 420-574 420zm0-226c153 0 255-89 255-218 0-131-108-226-255-226-148 0-255 94-255 226 0 128 101 218 255 218zm0-668c127 0 220-84 220-203s-90-200-220-200-220 80-220 200c0 119 92 203 220 203" id="aC"/><g id="C"><use transform="matrix(0.010850694444444444,0,0,0.010850694444444444,0,0)" xlink:href="#ad"/><use transform="matrix(0.010850694444444444,0,0,0.010850694444444444,8.37673611111111,0)" xlink:href="#aB"/><use transform="matrix(0.010850694444444444,0,0,0.010850694444444444,17.957899305555557,0)" xlink:href="#ae"/><use transform="matrix(0.010850694444444444,0,0,0.010850694444444444,31.95529513888889,0)" xlink:href="#aC"/><use transform="matrix(0.010850694444444444,0,0,0.010850694444444444,46.41927083333333,0)" xlink:href="#af"/></g><path d="M180 0v-1490h510c348 0 508 194 508 460 0 198-88 351-276 417L1256 0h-220L726-579c-117 2-238 0-356 1V0H180zm190-747h312c235 0 327-108 327-283 0-177-92-293-329-293H370v576" id="aD"/><path d="M628 24c-324 0-524-230-524-574 0-343 198-582 503-582 237 0 487 146 487 559v75H286c9 234 145 362 343 362 132 0 231-58 273-172l174 48C1024-91 857 24 628 24zM287-650h624c-17-190-120-322-304-322-192 0-309 151-320 322" id="aE"/><path d="M611 442c-248 0-391-105-460-228l146-94c47 65 117 165 314 165 178 0 307-82 307-266v-224h-17C863-141 792-18 576-18c-268 0-472-195-472-546 0-346 197-568 476-568 216 0 288 133 326 193h17v-179h175V29c0 289-215 413-487 413zm-5-620c203 0 314-146 314-390 0-237-108-403-314-403-213 0-319 180-319 403 0 230 109 390 319 390" id="aF"/><path d="M158 0v-1118h174v172h12c41-113 157-188 290-188 26 0 70 2 91 3v181c-11-2-60-10-108-10-161 0-279 109-279 260V0H158" id="aG"/><path d="M538 24C308 24 148-78 108-271l171-41c32 123 123 178 257 178 156 0 256-77 256-169 0-77-54-128-164-154l-186-44c-203-48-300-148-300-305 0-192 176-326 414-326 230 0 351 112 402 269l-163 42c-31-80-94-158-238-158-133 0-233 69-233 162 0 83 57 129 188 160l169 40c203 48 298 149 298 302 0 196-179 339-441 339" id="aH"/><path d="M471 26C259 26 90-98 90-318c0-256 228-303 435-329 202-27 287-16 287-108 0-139-79-219-234-219-161 0-248 86-283 164l-173-57c86-203 278-265 451-265 150 0 419 46 419 395V0H815v-152h-12C765-73 660 26 471 26zm31-159c199 0 310-134 310-271v-155c-30 35-226 55-295 64-131 17-246 59-246 186 0 116 97 176 231 176" id="aI"/><g id="D"><use transform="matrix(0.008680555555555556,0,0,0.008680555555555556,0,0)" xlink:href="#aD"/><use transform="matrix(0.008680555555555556,0,0,0.008680555555555556,11.180555555555559,0)" xlink:href="#aE"/><use transform="matrix(0.008680555555555556,0,0,0.008680555555555556,21.545138888888893,0)" xlink:href="#aF"/><use transform="matrix(0.008680555555555556,0,0,0.008680555555555556,32.44791666666667,0)" xlink:href="#aG"/><use transform="matrix(0.008680555555555556,0,0,0.008680555555555556,38.84548611111112,0)" xlink:href="#aE"/><use transform="matrix(0.008680555555555556,0,0,0.008680555555555556,49.21006944444446,0)" xlink:href="#aH"/><use transform="matrix(0.008680555555555556,0,0,0.008680555555555556,58.59375000000001,0)" xlink:href="#aI"/></g><path d="M613 24c-304 0-509-231-509-576 0-350 205-580 509-580 216 0 392 114 453 309l-173 49c-33-115-133-197-280-197-223 0-326 196-326 419 0 220 103 415 326 415 150 0 252-85 285-206l172 49C1010-95 832 24 613 24" id="aJ"/><path d="M537 14c-226 0-379-139-379-422v-710h180v695c0 172 97 275 253 275 160 0 281-109 281-300v-670h181V0H879v-209C806-46 684 14 537 14" id="aK"/><path d="M338-670V0H158v-1118h173l1 207c72-158 192-221 342-221 226 0 378 139 378 422V0H872v-695c0-172-96-275-252-275-161 0-282 109-282 300" id="aL"/><path d="M158 0v-1118h180V0H158zm91-1301c-68 0-125-53-125-119s57-119 125-119c69 0 126 53 126 119s-57 119-126 119" id="aM"/><g id="E"><use transform="matrix(0.008680555555555556,0,0,0.008680555555555556,0,0)" xlink:href="#aH"/><use transform="matrix(0.008680555555555556,0,0,0.008680555555555556,9.383680555555555,0)" xlink:href="#aE"/><use transform="matrix(0.008680555555555556,0,0,0.008680555555555556,19.74826388888889,0)" xlink:href="#aJ"/><use transform="matrix(0.008680555555555556,0,0,0.008680555555555556,29.90451388888889,0)" xlink:href="#aK"/><use transform="matrix(0.008680555555555556,0,0,0.008680555555555556,40.41666666666667,0)" xlink:href="#aE"/><use transform="matrix(0.008680555555555556,0,0,0.008680555555555556,50.78125000000001,0)" xlink:href="#aL"/><use transform="matrix(0.008680555555555556,0,0,0.008680555555555556,61.28472222222222,0)" xlink:href="#aJ"/><use transform="matrix(0.008680555555555556,0,0,0.008680555555555556,71.44097222222223,0)" xlink:href="#aM"/><use transform="matrix(0.008680555555555556,0,0,0.008680555555555556,75.74652777777779,0)" xlink:href="#aI"/><use transform="matrix(0.008680555555555556,0,0,0.008680555555555556,85.72916666666667,0)" xlink:href="#aH"/></g><path fill="#6c165e" d="M135 0v-1490h305v1237h643V0H135" id="aN"/><path fill="#6c165e" d="M681 22C323 22 94-145 85-462h297c10 151 131 226 296 226 163 0 271-77 271-190 0-102-95-149-257-189l-164-41c-252-61-403-188-403-405 0-269 236-449 560-449 330 0 546 183 551 445H941c-11-119-106-188-259-188-156 0-244 72-244 172-3 156 226 185 373 221 250 61 445 186 445 436 0 271-213 446-575 446" id="aO"/><path fill="#6c165e" d="M135 0v-1490h468l242 684c30 94 76 293 111 455 34-161 80-360 110-455l238-684h470V0h-307c0-447-3-765 11-1227-122 503-246 788-395 1227H826C676-435 552-717 427-1215c15 453 11 775 11 1215H135" id="aP"/><g id="F"><use transform="matrix(0.010850694444444444,0,0,0.010850694444444444,0,0)" xlink:href="#aN"/><use transform="matrix(0.010850694444444444,0,0,0.010850694444444444,12.565104166666666,0)" xlink:href="#aO"/><use transform="matrix(0.010850694444444444,0,0,0.010850694444444444,27.115885416666664,0)" xlink:href="#ag"/><use transform="matrix(0.010850694444444444,0,0,0.010850694444444444,41.94878472222222,0)" xlink:href="#aP"/></g><path fill="#6c165e" d="M684 20C381 20 94-164 94-710c0-501 235-800 601-800 293 0 496 188 526 433H921c-25-105-108-170-226-170-197 0-301 182-301 476h10c67-130 211-208 374-208 263 0 459 201 459 481 0 301-224 518-553 518zm-2-242c147 0 258-116 258-268 0-150-108-266-256-266-146 0-259 121-259 267 0 147 109 267 257 267" id="aQ"/><path fill="#6c165e" d="M101-265v-241l623-984h383v979h186v246h-186V0H814v-265H101zm719-246v-643h-12L409-523v12h411" id="aR"/><g id="G"><use transform="matrix(0.010850694444444444,0,0,0.010850694444444444,0,0)" xlink:href="#ad"/><use transform="matrix(0.010850694444444444,0,0,0.010850694444444444,8.37673611111111,0)" xlink:href="#aQ"/><use transform="matrix(0.010850694444444444,0,0,0.010850694444444444,22.80815972222222,0)" xlink:href="#aR"/><use transform="matrix(0.010850694444444444,0,0,0.010850694444444444,37.83637152777778,0)" xlink:href="#af"/></g><path fill="#6c165e" d="M659 20C335 20 103-159 99-418h307c5 112 113 185 254 185 147 0 250-83 250-204 0-123-105-209-278-209H494v-227h138c145 0 246-81 246-200 0-115-87-193-216-193-130 0-237 73-240 189H128c4-255 233-433 536-433 306 0 510 185 510 418 0 167-114 285-279 317v11c217 29 333 162 333 347 0 254-237 437-569 437" id="aS"/><g id="H"><use transform="matrix(0.010850694444444444,0,0,0.010850694444444444,0,0)" xlink:href="#ad"/><use transform="matrix(0.010850694444444444,0,0,0.010850694444444444,8.37673611111111,0)" xlink:href="#aS"/><use transform="matrix(0.010850694444444444,0,0,0.010850694444444444,22.721354166666664,0)" xlink:href="#ae"/><use transform="matrix(0.010850694444444444,0,0,0.010850694444444444,36.71875,0)" xlink:href="#af"/></g><path d="M180 0v-1490h224l606 953c40 63 108 177 176 312-27-437-7-821-13-1265h190V0h-226C860-448 622-778 356-1262c27 476 11 792 15 1262H180" id="aT"/><path d="M613 24c-304 0-509-231-509-576 0-350 205-580 509-580 305 0 511 230 511 580 0 345-206 576-511 576zm0-161c226 0 329-195 329-415 0-222-103-419-329-419-223 0-326 196-326 419 0 220 103 415 326 415" id="aU"/><g id="I"><use transform="matrix(0.008680555555555556,0,0,0.008680555555555556,0,0)" xlink:href="#aT"/><use transform="matrix(0.008680555555555556,0,0,0.008680555555555556,13.394097222222223,0)" xlink:href="#aU"/></g><g id="J"><use transform="matrix(0.008680555555555556,0,0,0.008680555555555556,0,0)" xlink:href="#aG"/><use transform="matrix(0.008680555555555556,0,0,0.008680555555555556,6.397569444444445,0)" xlink:href="#aE"/><use transform="matrix(0.008680555555555556,0,0,0.008680555555555556,16.76215277777778,0)" xlink:href="#aF"/><use transform="matrix(0.008680555555555556,0,0,0.008680555555555556,27.664930555555557,0)" xlink:href="#aG"/><use transform="matrix(0.008680555555555556,0,0,0.008680555555555556,34.0625,0)" xlink:href="#aE"/><use transform="matrix(0.008680555555555556,0,0,0.008680555555555556,44.427083333333336,0)" xlink:href="#aH"/><use transform="matrix(0.008680555555555556,0,0,0.008680555555555556,53.81076388888889,0)" xlink:href="#aI"/></g><path fill="#6c165e" d="M572 22C302 22 117-98 78-306l279-48c29 105 101 156 224 156 114 0 185-48 185-115 0-118-228-130-337-155-215-49-322-150-322-317 0-215 187-347 470-347 265 0 424 116 466 298l-266 47c-24-76-87-130-196-130-98 0-174 46-174 113 0 56 38 95 144 117l201 40c216 44 320 143 320 302 0 220-207 367-500 367" id="aV"/><g id="K"><use transform="matrix(0.010850694444444444,0,0,0.010850694444444444,0,0)" xlink:href="#Y"/><use transform="matrix(0.010850694444444444,0,0,0.010850694444444444,14.008246527777777,0)" xlink:href="#Z"/><use transform="matrix(0.010850694444444444,0,0,0.010850694444444444,27.24609375,0)" xlink:href="#aa"/><use transform="matrix(0.010850694444444444,0,0,0.010850694444444444,41.080729166666664,0)" xlink:href="#aV"/><use transform="matrix(0.010850694444444444,0,0,0.010850694444444444,53.52647569444444,0)" xlink:href="#W"/></g><g id="L"><use transform="matrix(0.010850694444444444,0,0,0.010850694444444444,0,0)" xlink:href="#ad"/><use transform="matrix(0.010850694444444444,0,0,0.010850694444444444,8.37673611111111,0)" xlink:href="#aQ"/><use transform="matrix(0.010850694444444444,0,0,0.010850694444444444,22.80815972222222,0)" xlink:href="#aR"/><use transform="matrix(0.010850694444444444,0,0,0.010850694444444444,37.83637152777778,0)" xlink:href="#af"/></g><g id="M"><use transform="matrix(0.010850694444444444,0,0,0.010850694444444444,0,0)" xlink:href="#ad"/><use transform="matrix(0.010850694444444444,0,0,0.010850694444444444,8.37673611111111,0)" xlink:href="#aS"/><use transform="matrix(0.010850694444444444,0,0,0.010850694444444444,22.721354166666664,0)" xlink:href="#ae"/><use transform="matrix(0.010850694444444444,0,0,0.010850694444444444,36.71875,0)" xlink:href="#af"/></g><path d="M140 405l46-156c120 36 205 19 263-150l32-93L54-1118h197c107 313 237 620 324 950 87-331 219-637 326-950h196L606 167c-68 178-176 259-334 259-64 0-113-12-132-21" id="aW"/><use transform="matrix(0.015190972222222224,0,0,0.015190972222222224,0,0)" xlink:href="#aW" id="N"/><path fill="#6c165e" d="M128 0v-1118h300V0H128zm150-1264c-91 0-165-68-165-154 0-85 74-154 165-154 90 0 165 69 165 154 0 86-75 154-165 154" id="aX"/><g id="O"><use transform="matrix(0.010850694444444444,0,0,0.010850694444444444,0,0)" xlink:href="#aV"/><use transform="matrix(0.010850694444444444,0,0,0.010850694444444444,12.445746527777777,0)" xlink:href="#W"/><use transform="matrix(0.010850694444444444,0,0,0.010850694444444444,25.34722222222222,0)" xlink:href="#al"/><use transform="matrix(0.010850694444444444,0,0,0.010850694444444444,31.36935763888889,0)" xlink:href="#aX"/><use transform="matrix(0.010850694444444444,0,0,0.010850694444444444,37.39149305555555,0)" xlink:href="#Y"/><use transform="matrix(0.010850694444444444,0,0,0.010850694444444444,51.39973958333333,0)" xlink:href="#W"/></g><g id="P"><use transform="matrix(0.010850694444444444,0,0,0.010850694444444444,0,0)" xlink:href="#ad"/><use transform="matrix(0.010850694444444444,0,0,0.010850694444444444,8.37673611111111,0)" xlink:href="#aB"/><use transform="matrix(0.010850694444444444,0,0,0.010850694444444444,18.359375,0)" xlink:href="#af"/></g><path d="M577 24c-279 0-473-224-473-580 0-354 195-576 474-576 218 0 287 134 324 193h14v-551h180V0H922v-173h-20C865-111 790 24 577 24zm27-161c203 0 314-172 314-421 0-247-108-413-314-413-212 0-317 181-317 413 0 235 108 421 317 421" id="aY"/><path d="M598-1118v154H368v674c0 100 37 144 132 144 23 0 62-6 92-12L629-6c-37 13-88 20-134 20-193 0-307-107-307-290v-688H20v-154h168v-266h180v266h230" id="aZ"/><g id="R"><use transform="matrix(0.010850694444444444,0,0,0.010850694444444444,0,0)" xlink:href="#aY"/><use transform="matrix(0.010850694444444444,0,0,0.010850694444444444,13.606770833333332,0)" xlink:href="#aM"/><use transform="matrix(0.010850694444444444,0,0,0.010850694444444444,18.98871527777778,0)" xlink:href="#aH"/><use transform="matrix(0.010850694444444444,0,0,0.010850694444444444,30.71831597222222,0)" xlink:href="#aZ"/><use transform="matrix(0.010850694444444444,0,0,0.010850694444444444,38.09678819444444,0)" xlink:href="#aI"/><use transform="matrix(0.010850694444444444,0,0,0.010850694444444444,50.57508680555556,0)" xlink:href="#aL"/><use transform="matrix(0.010850694444444444,0,0,0.010850694444444444,63.70442708333333,0)" xlink:href="#aJ"/><use transform="matrix(0.010850694444444444,0,0,0.010850694444444444,76.39973958333334,0)" xlink:href="#aM"/><use transform="matrix(0.010850694444444444,0,0,0.010850694444444444,81.78168402777779,0)" xlink:href="#aI"/></g></defs></g></svg>